# xmcd
#
# Track frame offsets:
#	150
#	14550
#	34050
#	49275
#	61725
#	81450
#	94200
#	107475
#	120450
#	134325
#	147525
#	161475
#	173625
#	185550
#	201900
#	214425
#	227925
#	235275
#	251250
#	261300
#	272175
#	282375
#	296100
#	314055
#
# Disc length: 4361 seconds
#
# Revision: 1
# Processed by: cddbd v1.5.1PL2 Copyright (c) Steve Scherf et al.
# Submitted via: audiograbber 1.83.01
#
DISCID=7d110718
DTITLE=Arsen Dedic - Arsenologija 1
DYEAR=2001
DGENRE=Chanson
TTITLE0=Okus Soli
TTITLE1=Moderato Cantabile
TTITLE2=O,Mladosti
TTITLE3=Sve Te Vodilo K'meni
TTITLE4=Djevojka Za Jedan Dan
TTITLE5=U Ime Ljubavi
TTITLE6=Ni Ti,Ni Ja
TTITLE7=Dva Prijatelja
TTITLE8=U Namjeri Da Budemo Isti
TTITLE9=Ako Si Posla Spat
TTITLE10=Odlazak
TTITLE11=Tvoje Njezne Godine
TTITLE12=To Sam Ja
TTITLE13=Zagrli Me
TTITLE14=Tko Stoji Iza Mene
TTITLE15=jesma U Svitanje
TTITLE16=Stara Pjesma
TTITLE17=Zaboravlja Se
TTITLE18=Vlakom Prema Jugu
TTITLE19=Foliranti
TTITLE20=Predosjecaj Jeseni
TTITLE21=Jesenja Budala
TTITLE22=Njeznost U Mraku
TTITLE23=Cigareta
EXTD=
EXTT0=
EXTT1=
EXTT2=
EXTT3=
EXTT4=
EXTT5=
EXTT6=
EXTT7=
EXTT8=
EXTT9=
EXTT10=
EXTT11=
EXTT12=
EXTT13=
EXTT14=
EXTT15=
EXTT16=
EXTT17=
EXTT18=
EXTT19=
EXTT20=
EXTT21=
EXTT22=
EXTT23=
PLAYORDER=
